<?xml version="1.0" encoding="UTF-8"?>
<svg width="512pt" height="512pt" version="1.1" viewBox="0 0 512 512" xmlns="http://www.w3.org/2000/svg">
 <g fill="#fff">
  <path d="m269.23 130.81v19.605c-9.5664-3.5898-19.086-3.6016-28.445-0.054687v-19.555c0-2.2461-1.8203-4.0625-4.0625-4.0625l-53.164 0.003906c-2.2422 0-4.0625 1.8164-4.0625 4.0625v48.332c0 2.2461 1.8203 4.0625 4.0625 4.0625h53.164c2.2422 0 4.0625-1.8164 4.0625-4.0625v-19.934c9.3906-4.4805 18.746-4.4727 28.445 0.03125v19.898c0 2.2461 1.8203 4.0625 4.0625 4.0625h52.23c2.2422 0 4.0625-1.8164 4.0625-4.0625l0.003906-48.328c0-2.2461-1.8203-4.0625-4.0625-4.0625h-52.234c-2.2422 0-4.0625 1.8203-4.0625 4.0625zm-36.57 44.266h-45.035v-40.203h45.035zm44.699-40.203h44.105v40.203h-44.105z"/>
  <path d="m304.47 151.57c-1.4961 0.63672-3.1836 0.91016-4.8203 0.98438-0.015625-0.042969-0.023438-0.089844-0.039063-0.12891 0.99609-0.69531 1.9219-1.4922 2.6992-2.5039 1.3672-1.7812 1.0312-4.332-0.74609-5.6953-1.7812-1.3711-4.332-1.0312-5.6953 0.74609-0.77344 1.0039-1.7891 1.3945-2.8711 1.543-0.64062-0.14844-1.293-0.23438-1.9727-0.23438-5.0391 0-9.125 4.0859-9.125 9.125 0 5.0391 4.0859 9.125 9.125 9.125 3.0547 0 5.7422-1.5156 7.3984-3.8203 0.089844 0 0.16797 0.011718 0.25781 0.011718 2.9922 0 6.1562-0.48047 8.9844-1.6875 2.0625-0.88672 3.0234-3.2734 2.1367-5.3359-0.88281-2.0547-3.2734-3.0078-5.332-2.1289z"/>
  <path d="m201.37 159.02c2.6367 1.1797 5.8164 1.6445 8.8828 1.6445 0.12109 0 0.23438-0.015624 0.35938-0.019531 1.6484 2.3477 4.3672 3.8945 7.4609 3.8945 5.0391 0 9.125-4.0859 9.125-9.125 0-5.0391-4.0898-9.1289-9.1328-9.1289-0.67969 0-1.332 0.085938-1.9648 0.22266-1.0859-0.14453-2.1016-0.53906-2.8711-1.543-1.3711-1.7812-3.9258-2.1133-5.6953-0.74609-1.7812 1.3672-2.1172 3.918-0.74609 5.6953 0.77734 1.0117 1.7031 1.8047 2.7031 2.5-0.011719 0.03125-0.019532 0.066407-0.027344 0.097657-1.7227-0.0625-3.4414-0.32031-4.7734-0.91797-2.043-0.92578-4.4531 0.007812-5.3633 2.0547-0.92969 2.0508-0.003906 4.457 2.043 5.3711z"/>
  <path d="m286.71 99.742c-2.2031 0.39062-3.6719 2.4883-3.293 4.6914 0.38281 2.207 2.4961 3.7031 4.6914 3.3086 0.10938-0.019532 10.719-1.7539 18.059 3.418 0.71094 0.5 1.5273 0.74219 2.3359 0.74219 1.2773 0 2.5352-0.59766 3.3242-1.7227 1.293-1.832 0.85156-4.3672-0.98047-5.6641-10.137-7.1445-23.57-4.875-24.137-4.7734z"/>
  <path d="m200.61 111.91c0.80859 0 1.625-0.24219 2.3359-0.74219 7.2891-5.1328 17.805-3.457 18.055-3.418 2.2031 0.375 4.3125-1.0898 4.7031-3.3008 0.39062-2.2109-1.0859-4.3203-3.2969-4.707-0.57031-0.097656-13.996-2.3672-24.141 4.7773-1.832 1.293-2.2773 3.8281-0.98047 5.6641 0.79297 1.1289 2.0508 1.7266 3.3242 1.7266z"/>
  <path d="m265.64 189.41c-7.3672 2.0898-14.801 2.0898-22.168 0-2.1484-0.61328-4.4062 0.64062-5.0156 2.8008-0.61328 2.1562 0.64062 4.4062 2.8008 5.0156 4.4062 1.2539 8.8789 1.8828 13.297 1.8828 4.4219 0 8.8945-0.62891 13.297-1.8828 2.1602-0.60937 3.4141-2.8555 2.8008-5.0156-0.60938-2.1562-2.8672-3.4141-5.0117-2.8008z"/>
  <path d="m417.91 305.26c-11.715-6.7031-18.363-42.367-13.164-70.676 11.035-61.664 7.1328-184.56-20.672-221.5-5.0039-6.6484-10.676-10.34-16.867-10.984-10.328-1.0508-18.168 0.77344-23.266 5.4727-1.9844 1.8281-3.2383 3.8164-4.0664 5.6602-3.8086-2.0078-7.6992-2.875-11.629-2.5898-5.7773 0.42188-10.215 3.3047-12.828 5.5156-16.867-10.637-37.398-16.156-60.855-16.156-37.844 0-68.176 14.617-87.711 42.266-0.80469 1.1406-1.5195 2.3281-2.2812 3.5-0.16406 0.19531-0.28516 0.40234-0.40234 0.61719-22.273 34.762-24.219 80.695-14.234 109.69 0 0.42969 0.011718 0.81641 0.011718 1.2422-12.398 6.5352-21.043 23.203-14.914 39.867 5.1797 14.09 15.523 22.742 26.883 22.84 2.1953 4.1641 4.6445 8.2734 7.3516 12.781l0.54297 0.91016c8.8086 14.68 29.746 35.801 56.309 45.5v27.871c-43.828 14.816-116.57 60.402-134.06 200.35-0.019531 0.14453 0.039063 0.28516 0.035157 0.42969-0.003907 0.32031 0.011718 0.62109 0.082031 0.93359 0.054687 0.23047 0.12109 0.44141 0.21094 0.66406 0.11719 0.28906 0.26953 0.54687 0.44922 0.80469 0.082031 0.11328 0.10938 0.25781 0.20312 0.36719 0.078125 0.089844 0.19531 0.125 0.27734 0.20313 0.09375 0.089843 0.14453 0.21094 0.25 0.29687 0.17969 0.13672 0.38281 0.20703 0.57422 0.3125 0.14453 0.082032 0.27734 0.17578 0.43359 0.23438 0.48828 0.19531 0.99609 0.32422 1.5078 0.32422h316.95c0.51172 0 1.0117-0.125 1.5-0.32031 0.15625-0.0625 0.28125-0.14453 0.42578-0.22656 0.18359-0.097656 0.375-0.16016 0.54297-0.28906 0.11719-0.089844 0.17578-0.21875 0.27734-0.31641 0.089843-0.085937 0.21484-0.125 0.29687-0.21875 0.085938-0.097656 0.11328-0.23047 0.19141-0.33594 0.19141-0.26172 0.33594-0.52344 0.46094-0.81641 0.089844-0.21484 0.16797-0.41797 0.21484-0.64453 0.074219-0.31641 0.089844-0.625 0.085938-0.94922 0-0.14844 0.058593-0.29297 0.039062-0.44141-17.488-139.94-90.234-185.53-134.06-200.35v-27.871c15.242-5.5664 28.609-14.887 38.922-24.602 2.418 21.281 14.191 40.945 32.102 52.82 11.047 7.3281 23.441 11.031 36.047 11.031 9.1953 0 18.5-1.9766 27.469-5.9609 1.3984-0.62109 2.3281-1.9805 2.4062-3.5078 0.082032-1.5391-0.71094-2.9805-2.0391-3.7461zm-89.078-286.51c3.9961-0.26172 8.1523 1.5117 12.344 5.3633 3.7305 3.4297 5.6875 7.1953 5.8203 11.199 0.11719 3.6289-1.2344 6.9766-2.6602 9.4844-0.65234-0.99219-1.2578-2.0078-1.9453-2.9727-5.7266-8.0664-12.43-14.977-19.977-20.762 1.6602-1.0898 3.8398-2.1211 6.418-2.3125zm-186.18 175.64c-3.9141-10.641 0.40234-21.562 7.4688-27.445 0.69531 20.926 3.3555 33.699 7.6445 44.27-6.2734-1.9531-11.863-7.9922-15.113-16.824zm69.137 127.27 1.9102 5.5469-9.418 6.7773c-1.8203 1.3086-2.2344 3.8477-0.92578 5.6719 0.78906 1.0977 2.0352 1.6875 3.2969 1.6875 0.82031 0 1.6484-0.25 2.3672-0.76562l7.4375-5.3477 3.5312 10.258-8.4414 7.043c-1.7227 1.4375-1.9531 4-0.51562 5.7227 0.80469 0.96484 1.957 1.457 3.125 1.457 0.91797 0 1.8398-0.30859 2.6016-0.94141l6.0625-5.0586 3.7227 10.809-8.2227 9.082c-1.5078 1.6602-1.3789 4.2305 0.28516 5.7383 0.77734 0.70312 1.7539 1.0508 2.7266 1.0508 1.1055 0 2.2109-0.44531 3.0156-1.3359l5.2227-5.7617 7.1797 20.879h-101.2c22.844-39.531 51.84-60.93 76.234-72.512zm17.602 26.184c8.3672 4.5742 16.762 6.9062 25.164 6.9062 8.4141 0 16.84-2.3398 25.23-6.9336l-15.867 46.355h-18.578zm-103.14 64.246 6.6797 58.023c-10.168 4.7539-20.191 12.684-30.805 24.418 5.2422-32.957 13.723-60.105 24.125-82.441zm-21.582 91.793c10.309-12.086 19.805-20.281 29.242-25.25l2.9062 25.25zm149.88-24.637c-12.156 0-22.043-9.8906-22.043-22.047s9.8906-22.047 22.043-22.047c12.152 0 22.043 9.8906 22.043 22.047s-9.8906 22.047-22.043 22.047zm128.4-66.969c10.406 22.395 18.879 49.609 24.105 82.652-9.6055-9.6836-19.973-15.988-30.957-18.887zm21.383 91.605h-31.227l2.1172-19.688c10.27 3 20.02 9.6055 29.109 19.688zm-100.07-167.83-9.7539-6.1445 2.8203-8.2422c24.395 11.582 53.387 32.984 76.234 72.508h-101.05l6.5352-19.09 5.8438 4.7695c0.75391 0.61328 1.6602 0.91797 2.5664 0.91797 1.1797 0 2.3477-0.50781 3.1484-1.4922 1.418-1.7422 1.1562-4.3047-0.58203-5.7188l-8.1758-6.6758 3.0117-8.7969 8.0273 4.6875c0.64453 0.37891 1.3477 0.55859 2.043 0.55859 1.3984 0 2.7539-0.71875 3.5117-2.0117 1.1328-1.9414 0.48047-4.4297-1.457-5.5586l-9.4414-5.5195 4.2578-12.438 8.1211 5.1172c0.67578 0.42188 1.4219 0.625 2.1602 0.625 1.3477 0 2.668-0.67188 3.4414-1.8984 1.207-1.8945 0.63672-4.4023-1.2617-5.5977zm-14.383-17.711-5.8516 17.09c-19.832 14.816-39.133 14.816-58.914-0.007813l-5.8789-17.082c4.2695-1.7617 8.3516-3.2305 12.172-4.4414 1.7266-0.54688 2.7734-2.1484 2.7734-3.8711h0.058594v-28.293c6.5273 1.7109 13.32 2.7266 20.316 2.7266s13.793-1.0117 20.316-2.7266v28.293h0.058594c0 1.7227 1.0469 3.3242 2.7734 3.8711 3.8203 1.2109 7.9023 2.6797 12.176 4.4414zm42.461-88.801c-10.855 18.094-41.57 46.789-77.785 46.789-36.219 0-66.93-28.695-77.789-46.789l-0.54688-0.91016c-11.668-19.438-18.109-30.207-18.172-72.605 10.5-34.34 24.758-58.91 43.52-75.031 12.688 3.9766 33.492 7.4727 53.641 7.4727 19.605 0 38.465-3.3242 48.328-12.695 23.051 24.004 38.52 50.191 47.066 79.949-0.058594 43.441-6.5391 54.281-18.262 73.82zm34.117-35.145c-3.2852 8.9297-8.9766 15.027-15.355 16.926 4.1406-10.508 6.7266-23.316 7.4297-44.09 7.25 5.8477 11.773 16.695 7.9258 27.164z"/>
  <path d="m268.47 457.19c0 7.6875-6.2344 13.922-13.922 13.922-7.6914 0-13.922-6.2344-13.922-13.922s6.2305-13.922 13.922-13.922c7.6875 0 13.922 6.2344 13.922 13.922"/>
 </g>
</svg>
