<?xml version="1.0" encoding="UTF-8"?>
<svg width="512pt" height="512pt" version="1.1" viewBox="0 0 512 512" xmlns="http://www.w3.org/2000/svg">
 <g fill="#fff">
  <path d="m256 504c-136.75 0-248-111.25-248-248s111.25-248 248-248 248 111.25 248 248-111.25 248-248 248zm0-484c-130.13 0-236 105.87-236 236s105.87 236 236 236 236-105.87 236-236-105.87-236-236-236z"/>
  <path d="m105.46 162.76h301.09v12h-301.09z"/>
  <path d="m406.54 416h-301.09c-3.3164 0-6-2.6875-6-6v-308c0-3.3125 2.6836-6 6-6h301.09c3.3164 0 6 2.6875 6 6v308c-0.003906 3.3125-2.6875 6-6.0039 6zm-295.09-12h289.09l-0.003906-296h-289.09z"/>
  <path d="m163.05 141.45h-24.871c-3.3164 0-6-2.6875-6-6s2.6836-6 6-6h24.871c3.3164 0 6 2.6875 6 6s-2.6875 6-6 6z"/>
  <path d="m212.64 141.45h-24.871c-3.3164 0-6-2.6875-6-6s2.6836-6 6-6h24.871c3.3164 0 6 2.6875 6 6s-2.6875 6-6 6z"/>
  <path d="m367.27 141.45h-111.93c-3.3164 0-6-2.6875-6-6s2.6836-6 6-6h111.93c3.3164 0 6 2.6875 6 6s-2.6836 6-6 6z"/>
  <path d="m228.12 270.34-3.4453-10.352-51.535 22.145v10.336l50.91 21.883 0.625 0.26563 3.4453-10.348-40.656-16.965 40.109-16.738z"/>
  <path d="m229.85 345.38h12.445l39.566-115.3 0.28906-0.84766h-12.203z"/>
  <path d="m287.95 260.26-0.625-0.26953-3.4453 10.352 40.656 16.965-40.109 16.734-0.54688 0.23047 3.4453 10.348 51.535-22.148v-10.336z"/>
 </g>
</svg>
